<mxfile host="app.diagrams.net" modified="2024-02-06T15:55:04.721Z" agent="Mozilla/5.0 (Windows NT 10.0; Win64; x64; rv:122.0) Gecko/20100101 Firefox/122.0" etag="XjEMuQs0QMBR-OxYpiMK" version="23.1.1" type="github">
  <diagram name="Page-1" id="0mK8TtARuyR0YKansoO3">
    <mxGraphModel dx="1434" dy="746" grid="1" gridSize="10" guides="1" tooltips="1" connect="1" arrows="1" fold="1" page="1" pageScale="1" pageWidth="850" pageHeight="1100" math="0" shadow="0">
      <root>
        <mxCell id="0" />
        <mxCell id="1" parent="0" />
        <mxCell id="b92vP9jut8vcDspBZw-Z-1" value="" style="swimlane;startSize=0;" vertex="1" parent="1">
          <mxGeometry x="50" y="60" width="200" height="200" as="geometry" />
        </mxCell>
        <mxCell id="b92vP9jut8vcDspBZw-Z-3" value="Text" style="text;html=1;strokeColor=none;fillColor=none;align=center;verticalAlign=middle;whiteSpace=wrap;rounded=0;" vertex="1" parent="b92vP9jut8vcDspBZw-Z-1">
          <mxGeometry x="50" y="20" width="60" height="30" as="geometry" />
        </mxCell>
        <mxCell id="b92vP9jut8vcDspBZw-Z-2" value="" style="swimlane;startSize=0;" vertex="1" parent="1">
          <mxGeometry x="360" y="60" width="200" height="200" as="geometry" />
        </mxCell>
        <mxCell id="b92vP9jut8vcDspBZw-Z-4" value="Text" style="text;html=1;strokeColor=none;fillColor=none;align=center;verticalAlign=middle;whiteSpace=wrap;rounded=0;" vertex="1" parent="b92vP9jut8vcDspBZw-Z-2">
          <mxGeometry x="70" y="10" width="60" height="30" as="geometry" />
        </mxCell>
        <mxCell id="b92vP9jut8vcDspBZw-Z-5" style="edgeStyle=orthogonalEdgeStyle;rounded=0;orthogonalLoop=1;jettySize=auto;html=1;exitX=0.75;exitY=0;exitDx=0;exitDy=0;" edge="1" parent="1" source="b92vP9jut8vcDspBZw-Z-2" target="b92vP9jut8vcDspBZw-Z-2">
          <mxGeometry relative="1" as="geometry" />
        </mxCell>
      </root>
    </mxGraphModel>
  </diagram>
</mxfile>
